<svg width="343" height="144" viewBox="0 0 343 144" fill="none" xmlns="http://www.w3.org/2000/svg">
<path d="M48.7892 97.4729C42.0483 97.4729 36.5557 95.97 32.3342 92.9641C28.1126 89.9583 25.5479 85.7412 24.64 80.3128L37.0777 78.4062C37.7132 81.0755 39.1431 83.1841 41.322 84.7094C43.5009 86.2347 46.2699 87.0198 49.6289 87.0198C52.5568 87.0198 54.8265 86.4366 56.4379 85.2926C58.0494 84.1486 58.8438 82.5784 58.8438 80.5596C58.8438 79.3259 58.5487 78.3389 57.9586 77.5762C57.3685 76.836 56.0748 76.0957 54.0775 75.4004C52.0802 74.705 49.0388 73.8077 44.9081 72.7535C40.3234 71.5646 36.6692 70.2636 33.991 68.8728C31.2901 67.4821 29.3609 65.8446 28.1807 63.9379C27.0005 62.0313 26.4103 59.7433 26.4103 57.0291C26.4103 53.6644 27.2955 50.7258 29.0885 48.236C30.8816 45.7236 33.3782 43.817 36.5784 42.4487C39.7786 41.0803 43.569 40.4298 47.904 40.4298C52.2391 40.4298 55.9159 41.0803 59.2069 42.3814C62.4979 43.6824 65.1534 45.5218 67.1734 47.9219C69.1934 50.3221 70.4417 53.1484 70.9183 56.3786L58.4806 58.5768C58.1856 56.2664 57.1188 54.4719 55.3258 53.126C53.5101 51.8026 51.1269 51.0399 48.1083 50.8829C45.2485 50.7258 42.9335 51.152 41.1858 52.1615C39.4382 53.1709 38.553 54.6065 38.553 56.4459C38.553 57.4777 38.9162 58.375 39.6198 59.0928C40.3234 59.833 41.7532 60.5508 43.8867 61.291C46.0202 62.0313 49.2204 62.9285 53.4647 63.9828C57.8224 65.0819 61.295 66.3381 63.9051 67.7513C66.5152 69.1644 68.399 70.8692 69.5792 72.8208C70.7595 74.7723 71.3269 77.1725 71.3269 79.9764C71.3269 85.4048 69.3296 89.6667 65.335 92.7847C61.3404 95.8802 55.8024 97.428 48.7665 97.428L48.7892 97.4729Z" fill="black"></path>
<path d="M82.4028 119.972V41.9552H93.1837V79.8642H94.7044V119.972H82.4028ZM108.754 97.4729C103.42 97.4729 98.9487 96.2167 95.3399 93.7268C91.7311 91.2369 89.0076 87.8274 87.1918 83.4981C85.3761 79.1688 84.4682 74.3461 84.4682 68.9626C84.4682 63.579 85.3761 58.6666 87.1918 54.3597C89.0076 50.0529 91.6857 46.6658 95.2037 44.1759C98.7217 41.686 103.079 40.4523 108.277 40.4523C113.474 40.4523 117.923 41.686 121.713 44.1759C125.504 46.6658 128.454 50.0529 130.542 54.3373C132.63 58.6217 133.674 63.4893 133.674 68.9626C133.674 74.4358 132.653 79.2137 130.588 83.5205C128.522 87.8274 125.64 91.2145 121.895 93.7268C118.15 96.2391 113.77 97.4729 108.731 97.4729H108.754ZM106.892 86.6609C110.07 86.6609 112.68 85.8758 114.745 84.3056C116.811 82.7354 118.332 80.6044 119.33 77.9351C120.329 75.2433 120.828 72.26 120.828 68.9626C120.828 65.6651 120.329 62.7266 119.307 60.0349C118.286 57.3431 116.72 55.2121 114.609 53.6419C112.476 52.0493 109.775 51.2642 106.507 51.2642C103.238 51.2642 100.878 52.0044 98.926 53.4849C96.9741 54.9654 95.5215 57.0291 94.5909 59.676C93.6603 62.3229 93.2064 65.4184 93.2064 68.9626C93.2064 72.5067 93.6603 75.535 94.5909 78.2043C95.5215 80.8736 96.9967 82.9373 98.994 84.4402C100.991 85.9431 103.647 86.6609 106.915 86.6609H106.892Z" fill="black"></path>
<path d="M137.753 110.416V98.729H204.549V110.416H137.753Z" fill="black"></path>
<path d="M235.154 97.4729C229.526 97.4729 224.714 96.2391 220.742 93.7492C216.77 91.2594 213.706 87.8722 211.618 83.5654C209.507 79.2586 208.441 74.391 208.395 68.9626C208.418 63.422 209.53 58.5095 211.709 54.2251C213.888 49.9407 216.974 46.576 220.992 44.131C225.009 41.686 229.775 40.4523 235.313 40.4523C241.509 40.4523 246.775 42 251.087 45.0731C255.377 48.1687 258.191 52.3633 259.508 57.702L247.365 60.9546C246.412 58.0609 244.846 55.7953 242.667 54.1803C240.465 52.5652 237.969 51.7577 235.177 51.7577C232 51.7577 229.389 52.4979 227.324 53.9784C225.259 55.4589 223.738 57.5001 222.762 60.1022C221.786 62.7042 221.287 65.6427 221.287 68.9626C221.287 74.0993 222.444 78.2492 224.782 81.412C227.12 84.5748 230.57 86.1674 235.154 86.1674C238.4 86.1674 240.942 85.4272 242.826 83.9692C244.71 82.5111 246.117 80.3801 247.047 77.6211L259.485 80.3801C257.806 85.8758 254.855 90.1154 250.633 93.0539C246.412 96.0148 241.26 97.4729 235.154 97.4729Z" fill="black"></path>
<path d="M292.985 97.4729C287.447 97.4729 282.59 96.284 278.414 93.9287C274.238 91.551 270.97 88.276 268.632 84.0813C266.294 79.8866 265.114 75.0415 265.114 69.5682C265.114 63.6687 266.249 58.532 268.564 54.2027C270.856 49.851 274.034 46.4863 278.119 44.0861C282.204 41.686 286.925 40.4747 292.282 40.4747C297.956 40.4747 302.768 41.7757 306.739 44.4002C310.711 47.0247 313.639 50.7034 315.568 55.4813C317.498 60.2592 318.224 65.867 317.747 72.3273H305.65V67.9307C305.627 62.0537 304.583 57.7693 302.518 55.0775C300.452 52.3858 297.23 51.0174 292.804 51.0174C287.81 51.0174 284.111 52.5428 281.682 55.5934C279.254 58.6441 278.028 63.108 278.028 68.9626C278.028 74.4358 279.254 78.6529 281.682 81.6587C284.111 84.6645 287.652 86.1674 292.304 86.1674C295.3 86.1674 297.888 85.5169 300.067 84.1935C302.245 82.87 303.925 80.9633 305.105 78.4735L317.134 82.0849C315.046 86.9525 311.823 90.7434 307.443 93.4352C303.085 96.127 298.251 97.4953 293.008 97.4953L292.985 97.4729ZM274.17 72.3273V63.2201H311.755V72.3273H274.17Z" fill="black"></path>
</svg>